# xmcd
#
# Track frame offsets: 
#        150
#        12820
#        28767
#        47577
#        74521
#        87526
#        107246
#        117823
#        135753
#
# Disc length: 2052 seconds
#
# Revision: 0
# Processed by: cddbd v1.5.2PL0 Copyright (c) Steve Scherf et al.
# Submitted via: ExactAudioCopy v1.0b1
#
DISCID=70080209
DTITLE=Pierce Arrow - The Original
DYEAR=2000
DGENRE=Country
TTITLE0=Way Down
TTITLE1=Take It Easy
TTITLE2=Little Rock
TTITLE3=Country Medley
TTITLE4=Love Bug
TTITLE5=I Swear
TTITLE6=I Believe
TTITLE7=Water Grave
TTITLE8=How Great Thou Art
EXTD=
EXTT0=
EXTT1=
EXTT2=
EXTT3=
EXTT4=
EXTT5=
EXTT6=
EXTT7=
EXTT8=
PLAYORDER=
